# xmcd
#
# Track frame offsets: 
#        150
#        16426
#        36261
#        53123
#        75646
#        91326
#        115450
#        144595
#        173355
#        193256
#        213115
#
# Disc length: 3475 seconds
#
# Revision: 1
# Processed by: cddbd v1.5.2PL0 Copyright (c) Steve Scherf et al.
# Submitted via: ExactAudioCopyFreeDBPlugin 1.0
#
DISCID=8f0d910b
DTITLE=Houston Jones - Calico Heart
DYEAR=2008
DGENRE=Blues
TTITLE0=Coward's Game
TTITLE1=Aurora Borealis
TTITLE2=Calico Heart
TTITLE3=Born in the Moonshine
TTITLE4=Sleepy Armadillo
TTITLE5=Colville
TTITLE6=Mighty Red
TTITLE7=The Ballad of Cosmo and Tilly (A Cautionary Tale)
TTITLE8=Long Look Back
TTITLE9=Galilee
TTITLE10=Roads to Dominion
EXTD=
EXTT0=
EXTT1=
EXTT2=
EXTT3=
EXTT4=
EXTT5=
EXTT6=
EXTT7=
EXTT8=
EXTT9=
EXTT10=
PLAYORDER=
